# xmcd
#
# Track frame offsets:
#	150
#	13870
#	24681
#	36250
#	57986
#	69547
#	83647
#	104546
#	115455
#	132126
#	143890
#	160344
#
# Disc length: 2397 seconds
#
# Revision: 0
# Processed by: cddbd v1.5PL3 Copyright (c) Steve Scherf et al.
# Submitted via: dBpowerAMP V4.0
#
DISCID=a8095b0c
DTITLE=Penthouse - Unt
DYEAR=2001
DGENRE=Psychobilly
TTITLE0=New Black Nativity
TTITLE1=SexTourettes
TTITLE2=Creatures Vs. People
TTITLE3=Posthumous Climax
TTITLE4=White Slave Speaks His Mind
TTITLE5=Baby Must Die
TTITLE6=Angry Goats
TTITLE7=Miss Albion
TTITLE8=Nighthreat
TTITLE9=To Those Who Would Be Made Into Dolls
TTITLE10=My Last Little Vinegar Sips
TTITLE11=War In Heaven
EXTD=
EXTT0=
EXTT1=
EXTT2=
EXTT3=
EXTT4=
EXTT5=
EXTT6=
EXTT7=
EXTT8=
EXTT9=
EXTT10=
EXTT11=
PLAYORDER=
